<svg width="42" height="43" viewBox="0 0 42 43" fill="none" xmlns="http://www.w3.org/2000/svg">
<path d="M41.8675 19.9974L40.2805 13.2887L35.3685 14.4948C34.5372 12.8364 33.4792 11.3288 32.119 10.0474L34.7639 5.75078L28.9451 2.13258L26.3001 6.4292C24.562 5.82616 22.7483 5.52465 20.8591 5.52465L19.7255 0.625L12.9998 2.20796L14.1334 7.10761C12.4709 7.93678 10.9594 8.99208 9.67474 10.3489L5.36726 7.71064L1.73995 13.5148L6.04742 16.1531C5.44286 17.8868 5.14056 19.6959 5.14056 21.5804L0.228516 22.7111L1.81547 29.4198L6.72752 28.2891C7.55879 29.9475 8.61677 31.4551 9.97703 32.7365L7.3321 37.0331L13.1509 40.6513L15.7959 36.3547C17.534 36.9577 19.3477 37.2593 21.2369 37.2593L22.3705 42.1589L29.0962 40.5759L27.9626 35.6763C29.6252 34.8471 31.1366 33.7918 32.4213 32.435L36.7287 35.0733L40.3561 29.2691L36.0486 26.6308C36.6531 24.8971 36.9554 23.088 36.9554 21.2035L41.8675 19.9974Z" fill="#668E19"/>
<path d="M28.5676 19.6205C29.55 23.7663 26.9806 27.8368 22.8243 28.8167C18.668 29.7966 14.5872 27.2338 13.6048 23.0879C12.6224 18.9421 15.1918 14.8716 19.3481 13.8917C23.5044 12.9117 27.5852 15.4746 28.5676 19.6205Z" fill="#F1F2F2"/>
</svg>
