<svg width="36" height="36" viewBox="0 0 36 36" fill="none" xmlns="http://www.w3.org/2000/svg">
<rect x="0.5" y="0.5" width="35" height="35" rx="4.5" stroke="#828282" stroke-linejoin="round" stroke-dasharray="4 4"/>
<g clip-path="url(#clip0_210_783)">
<path d="M16.0016 16.4002C16.0016 16.7185 15.8751 17.0237 15.6501 17.2487C15.425 17.4738 15.1198 17.6002 14.8016 17.6002C14.4833 17.6002 14.1781 17.4738 13.953 17.2487C13.728 17.0237 13.6016 16.7185 13.6016 16.4002C13.6016 16.0819 13.728 15.7767 13.953 15.5517C14.1781 15.3266 14.4833 15.2002 14.8016 15.2002C15.1198 15.2002 15.425 15.3266 15.6501 15.5517C15.8751 15.7767 16.0016 16.0819 16.0016 16.4002Z" fill="#828282"/>
<path d="M12.8017 12.7998C12.3773 12.7998 11.9703 12.9684 11.6703 13.2684C11.3702 13.5685 11.2017 13.9755 11.2017 14.3998V22.3998C11.2017 22.8242 11.3702 23.2311 11.6703 23.5312C11.9703 23.8312 12.3773 23.9998 12.8017 23.9998H22.4017C22.826 23.9998 23.233 23.8312 23.533 23.5312C23.8331 23.2311 24.0017 22.8242 24.0017 22.3998V14.3998C24.0017 13.9755 23.8331 13.5685 23.533 13.2684C23.233 12.9684 22.826 12.7998 22.4017 12.7998H12.8017ZM22.4017 13.5998C22.6138 13.5998 22.8173 13.6841 22.9673 13.8341C23.1174 13.9841 23.2017 14.1876 23.2017 14.3998V19.5998L20.1801 18.0422C20.105 18.0046 20.0201 17.9916 19.9373 18.0049C19.8544 18.0183 19.7779 18.0574 19.7185 18.1166L16.7505 21.0846L14.6225 19.667C14.5456 19.6159 14.4535 19.5928 14.3616 19.6019C14.2698 19.6109 14.1838 19.6515 14.1185 19.7166L12.0017 21.5998V14.3998C12.0017 14.1876 12.0859 13.9841 12.236 13.8341C12.386 13.6841 12.5895 13.5998 12.8017 13.5998H22.4017Z" fill="#828282"/>
</g>
<defs>
<clipPath id="clip0_210_783">
<rect width="12.8" height="12.8" fill="white" transform="translate(11.2002 12)"/>
</clipPath>
</defs>
</svg>
