<svg width="26" height="26" viewBox="0 0 26 26" fill="none" xmlns="http://www.w3.org/2000/svg">
<g clip-path="url(#clip0_211_646)">
<path d="M9.813 5.09627e-08C8.52439 -0.000131279 7.24837 0.253567 6.0578 0.746607C4.86724 1.23965 3.78546 1.96237 2.87422 2.87351C1.96299 3.78466 1.24015 4.86637 0.74699 6.05688C0.253828 7.24739 4.42756e-08 8.52339 5.09679e-08 9.812C-0.000131295 11.1007 0.2536 12.3768 0.746703 13.5674C1.23981 14.7581 1.96262 15.8399 2.87387 16.7511C3.78512 17.6624 4.86695 18.3852 6.05757 18.8783C7.2482 19.3714 8.5243 19.6251 9.813 19.625C12.103 19.625 14.206 18.814 15.876 17.5L16.751 18.375C16.5713 18.7241 16.5077 19.1214 16.5694 19.5092C16.6311 19.8969 16.8149 20.2549 17.094 20.531L21.688 25.156C22.401 25.87 23.568 25.87 24.282 25.156L25.157 24.281C25.4996 23.9363 25.6919 23.47 25.6919 22.984C25.6919 22.498 25.4996 22.0317 25.157 21.687L20.532 17.093C20.2539 16.8157 19.8938 16.6356 19.5052 16.5794C19.1166 16.5232 18.7202 16.5939 18.375 16.781L17.5 15.906C18.6453 14.4607 19.3602 12.7218 19.5626 10.8888C19.765 9.05584 19.4467 7.20292 18.6443 5.54253C17.8418 3.88214 16.5877 2.48149 15.0257 1.50118C13.4638 0.520871 11.6571 0.000593239 9.813 5.09627e-08ZM9.813 1.812C11.9347 1.812 13.9696 2.65486 15.4699 4.15515C16.9701 5.65544 17.813 7.69027 17.813 9.812C17.813 11.9337 16.9701 13.9686 15.4699 15.4689C13.9696 16.9691 11.9347 17.812 9.813 17.812C7.69127 17.812 5.65644 16.9691 4.15615 15.4689C2.65586 13.9686 1.813 11.9337 1.813 9.812C1.813 7.69027 2.65586 5.65544 4.15615 4.15515C5.65644 2.65486 7.69127 1.812 9.813 1.812Z" fill="#C9C9C9"/>
</g>
<defs>
<clipPath id="clip0_211_646">
<rect width="26" height="26" fill="white"/>
</clipPath>
</defs>
</svg>
