<svg width="57" height="72" viewBox="0 0 57 72" fill="none" xmlns="http://www.w3.org/2000/svg">
<path d="M47.6567 71.9184L56.3472 63.2499V0.534424H0.274414V71.9184H47.6567Z" fill="#8DC63F"/>
<path d="M47.2031 71.3908V62.7976H55.8181L47.2031 71.3908Z" fill="#668E19"/>
<path d="M36.1705 12.8213H20.3008V18.927H36.1705V12.8213Z" fill="white"/>
<path d="M37.2284 19.8315H19.3184V11.8413H37.1528V19.8315H37.2284ZM21.2832 17.947H35.188V13.8012H21.2832V17.947Z" fill="white"/>
<path d="M23.8528 31.7415H13.3486V36.7919H23.8528V31.7415Z" fill="white"/>
<path d="M24.9104 37.7717H12.4414V30.7615H24.9104V37.7717ZM14.3307 35.8119H22.9457V32.646H14.3307V35.8119Z" fill="white"/>
<path d="M17.1265 48.325H9.7207V53.3754H17.1265V48.325Z" fill="white"/>
<path d="M18.1089 54.3552H8.73828V47.345H18.1089V54.3552ZM10.7031 52.3954H16.1441V49.2294H10.7031V52.3954Z" fill="white"/>
<path d="M31.938 48.325H24.5322V53.3754H31.938V48.325Z" fill="white"/>
<path d="M32.8452 54.3552H23.4746V47.345H32.8452V54.3552ZM25.515 52.3954H30.956V49.2294H25.515V52.3954Z" fill="white"/>
<path d="M46.6744 48.325H39.2686V53.3754H46.6744V48.325Z" fill="white"/>
<path d="M47.6568 54.3552H38.2861V47.345H47.6568V54.3552ZM40.2509 52.3954H45.6919V49.2294H40.2509V52.3954Z" fill="white"/>
<path d="M43.122 31.7415H32.6934V36.7919H43.122V31.7415Z" fill="white"/>
<path d="M44.1044 37.7717H31.7109V30.7615H44.1044V37.7717ZM33.6002 35.8119H42.064V32.646H33.6002V35.8119Z" fill="white"/>
<path d="M38.8148 32.043H36.9256V26.9926H19.6201V32.043H17.6553V25.0327H38.8148V32.043Z" fill="white"/>
<path d="M29.293 19.6807H27.3281V26.2386H29.293V19.6807Z" fill="white"/>
<path d="M19.6201 35.8118H17.6553V44.1035H19.6201V35.8118Z" fill="white"/>
<path d="M43.9537 48.6263H41.9888V44.6312H14.4058V48.6263H12.5166V42.6714H43.9537V48.6263Z" fill="white"/>
<path d="M29.2177 42.6714H27.2529V48.7017H29.2177V42.6714Z" fill="white"/>
</svg>
