<svg width="59" height="59" viewBox="0 0 59 59" fill="none" xmlns="http://www.w3.org/2000/svg">
<path d="M58.647 34.3247V24.5254H51.4679C50.8633 21.8872 49.8809 19.475 48.4451 17.289L53.5838 12.1633L46.6314 5.22837L41.4927 10.3542C39.3012 8.99733 36.8829 7.94203 34.238 7.33899V0.177979H24.4139V7.33899C21.769 7.94203 19.3507 8.92195 17.1592 10.3542L12.0205 5.30375L5.06805 12.2386L10.2068 17.3644C8.84654 19.5504 7.78855 21.9625 7.18399 24.6008H0.00488281V34.4001H7.18399C7.78855 37.0384 8.77097 39.4505 10.2068 41.6365L5.06805 46.7623L12.0205 53.6972L17.1592 48.5714C19.3507 49.9282 21.769 50.9835 24.4139 51.5865V58.7476H34.238V51.5865C36.8829 50.9835 39.3012 50.0036 41.4927 48.5714L46.6314 53.6972L53.5838 46.7623L48.4451 41.6365C49.8053 39.4505 50.8633 37.0384 51.4679 34.4001H58.647V34.3247Z" fill="#8DC63F"/>
<path d="M40.2834 29.4251C40.2834 35.4554 35.3714 40.3551 29.3258 40.3551C23.2802 40.3551 18.3682 35.4554 18.3682 29.4251C18.3682 23.3948 23.2802 18.4951 29.3258 18.4951C35.3714 18.4951 40.2834 23.3948 40.2834 29.4251Z" fill="#F1F2F2"/>
</svg>
