<svg width="92" height="69" viewBox="0 0 92 69" fill="none" xmlns="http://www.w3.org/2000/svg">
<path d="M91.4943 22.9324V58.1344H79.781L79.8566 61.7526V63.7125V68.386L76.9094 66.5769L75.7002 65.8231L73.0553 64.1648L72.4507 63.8632L69.2768 61.9034L69.0501 61.7526L66.0273 59.8681L64.9693 59.2651L63.2312 58.1344H28.3936V22.9324H91.4943Z" fill="#668E19"/>
<path d="M0.357422 0.243164V35.4452H11.9952V45.6968L28.6205 35.4452H63.4582V0.243164H0.357422Z" fill="#8DC63F"/>
<path d="M22.1972 17.2035C22.1972 19.0126 20.7614 20.4448 18.9477 20.4448C17.1341 20.4448 15.6982 19.0126 15.6982 17.2035C15.6982 15.3944 17.1341 13.9622 18.9477 13.9622C20.6859 13.9622 22.1972 15.3944 22.1972 17.2035Z" fill="white"/>
<path d="M35.1953 17.2035C35.1953 19.0126 33.7595 20.4448 31.9458 20.4448C30.1321 20.4448 28.6963 19.0126 28.6963 17.2035C28.6963 15.3944 30.1321 13.9622 31.9458 13.9622C33.6839 13.9622 35.1953 15.3944 35.1953 17.2035Z" fill="white"/>
<path d="M47.9668 17.2035C47.9668 19.0126 46.531 20.4448 44.7173 20.4448C42.9036 20.4448 41.4678 19.0126 41.4678 17.2035C41.4678 15.3944 42.9036 13.9622 44.7173 13.9622C46.531 13.9622 47.9668 15.3944 47.9668 17.2035Z" fill="white"/>
</svg>
