<svg width="45" height="71" viewBox="0 0 45 71" fill="none" xmlns="http://www.w3.org/2000/svg">
<path d="M0.880859 62.9283V8.73067C0.880859 4.2833 4.50821 0.740479 8.89125 0.740479H36.0208C40.4794 0.740479 44.0312 4.35868 44.0312 8.73067V62.9283C44.0312 67.3756 40.4039 70.9184 36.0208 70.9184H8.89125C4.43264 70.9184 0.880859 67.3756 0.880859 62.9283Z" fill="#668E19"/>
<path d="M44.0283 57.8362L44.0283 8.7644L0.877968 8.7644L0.877968 57.8362L44.0283 57.8362Z" fill="#8DC63F"/>
<path d="M26.4993 65.7172H18.3377C17.3553 65.7172 16.5996 64.9634 16.5996 63.9835C16.5996 63.0035 17.3553 62.2498 18.3377 62.2498H26.4993C27.4817 62.2498 28.2374 63.0035 28.2374 63.9835C28.2374 64.9634 27.4817 65.7172 26.4993 65.7172Z" fill="white"/>
<path d="M19.245 43.3296C18.7916 43.3296 18.3382 43.1789 18.0359 42.8774L11.3102 36.4701C10.6301 35.7917 10.5545 34.7364 11.2346 34.058C11.9148 33.3796 12.9727 33.3042 13.6529 33.9826L18.9427 38.9576L33.0743 19.2083C33.6033 18.4545 34.7368 18.2284 35.4925 18.8314C36.2482 19.3591 36.4749 20.4898 35.8704 21.2435L20.6053 42.6512C20.303 43.0281 19.8496 43.3296 19.3962 43.405C19.3962 43.3296 19.3206 43.3296 19.245 43.3296Z" fill="white"/>
</svg>
