<svg width="67" height="63" viewBox="0 0 67 63" fill="none" xmlns="http://www.w3.org/2000/svg">
<path d="M39.0327 62.8025H6.46201C3.28808 62.8025 0.71875 60.2396 0.71875 57.0737V24.5853C0.71875 21.4193 3.28808 18.8564 6.46201 18.8564H39.0327C42.2066 18.8564 44.776 21.4193 44.776 24.5853V57.0737C44.776 60.2396 42.2066 62.8025 39.0327 62.8025Z" fill="#8DC63F"/>
<path d="M22.7854 52.0232C21.7275 52.0232 20.745 51.5709 20.0649 50.8172L1.24811 30.9171C-0.187717 29.4095 -0.112231 26.9973 1.39917 25.5651C2.91056 24.1329 5.32885 24.2083 6.76467 25.7159L22.7854 42.6762L60.2681 1.97147C61.7039 0.463892 64.0465 0.313136 65.6335 1.74534C67.1449 3.17754 67.296 5.5143 65.8602 7.09726L25.5815 50.8172C24.8258 51.5709 23.8434 52.0232 22.7854 52.0232Z" fill="#668E19"/>
</svg>
